<svg xmlns="http://www.w3.org/2000/svg" width="42.25" height="35.199" viewBox="0 0 42.25 35.199"><g transform="translate(0 -0.007)"><path d="M10.258,30.8V18.1h5.712a21.424,21.424,0,0,1,7.262,3.27h4.436c2.008.12,3.06,2.156,1.107,3.494-1.554,1.142-3.607,1.076-5.712.887a.955.955,0,1,0,0,1.884c.526.041,1.1-.083,1.6-.083,2.627,0,4.787-.505,6.111-2.579l.664-1.551,6.6-3.27c3.3-1.087,5.646,2.366,3.215,4.769a86.452,86.452,0,0,1-14.693,8.648,9.949,9.949,0,0,1-10.921,0L10.258,30.8Zm15.9-28.111C27.41,1.383,28.283.259,30.209.039c3.611-.416,6.932,3.284,5.11,6.925a16.152,16.152,0,0,1-2.744,3.48c-1.283,1.327-2.7,2.631-3.7,3.617l-2.713,2.692-2.242-2.159c-2.7-2.6-7.094-5.866-7.238-9.917A4.436,4.436,0,0,1,21.392.056c2.3.028,3.27,1.173,4.769,2.631ZM0,16.881H8.538V32.073H0V16.881Z" transform="translate(0 0)" fill="#fff" fill-rule="evenodd"/></g></svg>