<svg xmlns="http://www.w3.org/2000/svg" width="49.288" height="33.323" viewBox="0 0 49.288 33.323"><g transform="translate(0 0)"><path d="M462.91,1164.547h30.8v-15.486a1.961,1.961,0,0,0-1.961-1.961H464.871a1.961,1.961,0,0,0-1.961,1.961Z" transform="translate(-462.91 -1147.1)" fill="#fff"/><path d="M567.11,1173.172v-6.282h5.5a2.265,2.265,0,0,1,1.958,1.126l3.008,5.156Z" transform="translate(-534.05 -1160.611)" fill="#fff"/><circle cx="4.274" cy="4.274" r="4.274" transform="translate(3.23 24.776)" fill="#fff"/><path d="M462.91,1208.69v5.146a1.745,1.745,0,0,0,1.745,1.745h1.079a5.076,5.076,0,0,1,9.353,0h18.627v-6.891Z" transform="translate(-462.91 -1189.149)" fill="#fff"/><path d="M579.674,1194.11H567.11v11.517h2.783a5.076,5.076,0,0,1,9.353,0h2.919a1.174,1.174,0,0,0,1.174-1.174v-8.335Z" transform="translate(-534.05 -1179.195)" fill="#fff"/><circle cx="4.274" cy="4.274" r="4.274" transform="translate(36.378 24.776)" fill="#fff"/></g></svg>