<svg xmlns="http://www.w3.org/2000/svg" width="35.5" height="35" viewBox="0 0 35.5 35"><path d="M38.461,24.419l-3.687-3.259V15.608C34.765,9.4,29.468,4.2,22.488,3.539V1.125h-2.73V3.539C12.8,4.24,7.53,9.418,7.471,15.608v5.552L3.784,24.419a1.043,1.043,0,0,0-.409.844v3.621a1.064,1.064,0,0,0,.373.877,1.381,1.381,0,0,0,.992.33H14.3c0,3.333,3.056,6.034,6.826,6.034s6.826-2.7,6.826-6.034H37.5a1.381,1.381,0,0,0,.992-.33,1.064,1.064,0,0,0,.373-.877V25.263A1.043,1.043,0,0,0,38.461,24.419ZM21.123,33.711a3.88,3.88,0,0,1-4.1-3.621h8.191A3.88,3.88,0,0,1,21.123,33.711Zm15.017-6.034H6.106V25.746l3.687-3.259a1.043,1.043,0,0,0,.409-.844V15.608c0-5.332,4.89-9.655,10.921-9.655s10.921,4.323,10.921,9.655v6.034a1.043,1.043,0,0,0,.409.844l3.687,3.259Z" transform="translate(-3.373 -1.125)" fill="#f70"/></svg>