<svg xmlns="http://www.w3.org/2000/svg" width="16.999" height="17" viewBox="0 0 16.999 17"><path d="M16.764,14.136l-2.4,2.378A1.734,1.734,0,0,1,13.088,17a11.085,11.085,0,0,1-5.5-2.071,21.2,21.2,0,0,1-6.416-7A9.054,9.054,0,0,1,0,3.941a1.745,1.745,0,0,1,.486-1.3l2.4-2.4a.793.793,0,0,1,1.3.216L6.113,4.122A1.062,1.062,0,0,1,5.9,5.329l-.883.883a.435.435,0,0,0-.09.252,7.528,7.528,0,0,0,2.27,3.35c.906.832,1.88,1.958,3.145,2.225a.5.5,0,0,0,.459-.045l1.027-1.045a1.173,1.173,0,0,1,1.243-.18h.018l3.478,2.053a.837.837,0,0,1,.2,1.315Z" transform="translate(0)" fill="#fff"/></svg>