<svg xmlns="http://www.w3.org/2000/svg" width="113.217" height="38.121" viewBox="0 0 113.217 38.121"><g transform="translate(-0.1 0.04)"><path d="M-199.122,993.174l6.615-.462.014.1c-.638.09-1.275.182-1.913.268q-4.3.582-8.6,1.161c-2.074.279-4.149.55-6.223.83-2.464.333-4.927.675-7.391,1.01-1.774.24-3.548.474-5.322.713l-7.473,1-8.139,1.095c-3.442.467-6.883.943-10.325,1.408-2.439.327-4.878.641-7.318.971-3.43.464-6.857.94-10.287,1.4-2.439.327-4.878.642-7.318.971-3.065.415-6.128.843-9.192,1.258-1.839.249-3.68.479-5.52.725q-3.619.491-7.237.982c-2.113.286-4.227.563-6.339.851-1.447.2-2.892.4-4.336.6a2.2,2.2,0,0,1-.279,0c1.384-12.7,2.765-25.365,4.155-38.117q.163.112.314.239,3.54,3.419,7.081,6.835a.8.8,0,0,1,.258.68q-.394,6.525-.772,13.051-.25,4.313-.484,8.626c-.007.122,0,.245,0,.4,1.09-.082,2.137-.152,3.184-.248a.6.6,0,0,0,.326-.246q4.591-5.843,9.173-11.69c.685-.873,1.36-1.754,2.072-2.605a1.03,1.03,0,0,1,.64-.27c.97-.094,1.943-.147,2.913-.22,1.491-.113,2.987-.229,4.607-.354l-12.829,14.919c.692-.039,1.273-.065,1.854-.1q2.741-.185,5.481-.379c.745-.052,1.5-.114,2.247-.159a.4.4,0,0,0,.418-.369q.7-3.135,1.4-6.268.774-3.431,1.564-6.86c.187-.8.207-.8,1.076-.866q5.12-.38,10.241-.756,5.889-.439,11.777-.883,5.653-.419,11.306-.828c.468-.034.934-.081,1.459-.126-.182.732-.346,1.4-.509,2.06-.152.619-.306,1.237-.449,1.859a.382.382,0,0,1-.411.355c-1.825.124-3.647.281-5.473.405-.322.022-.417.156-.478.43-.426,1.9-.865,3.8-1.3,5.7q-.43,1.883-.858,3.765a2.656,2.656,0,0,0-.024.327l9.656-.663a3.765,3.765,0,0,1-1.371-1.6,1.69,1.69,0,0,1-.152-1.255q1.271-5.123,2.527-10.249c.076-.309.184-.613.232-.927.04-.257.171-.327.417-.347,1.734-.126,3.466-.262,5.2-.393l8.15-.629,4.842-.376c.115-.009.231,0,.415,0-.136.628-.262,1.207-.392,1.786-.113.5-.26.99-.339,1.492-.053.351-.224.467-.564.489-1.432.093-2.864.2-4.3.3-2.324.171-4.647.348-6.972.512a.4.4,0,0,0-.427.35q-.625,2.837-1.262,5.673c-.058.262-.125.524-.181.786a.521.521,0,0,0,.61.688c2.008-.164,4.014-.339,6.023-.5,1.706-.138,3.414-.262,5.12-.393.113-.008.228,0,.384,0l-.718,3.311c.486.136.542.1.636-.341q.786-3.546,1.581-7.091c.005-.026.014-.05.019-.075.2-.888.2-.883,1.125-.949q2.838-.2,5.674-.413c.127-.009.254,0,.427,0l-1.147,4.937c.683-.044,1.294-.08,1.905-.125,1.444-.106,2.888-.22,4.332-.327a.957.957,0,0,0,.958-.712c.367-1.34.711-2.685,1.056-4.032.177-.691.335-1.388.505-2.081.122-.5.035-.6-.493-.561l-8.584.655-4.765.367c-.1.008-.2,0-.364,0,.079-.41.144-.768.216-1.125.156-.774.327-1.546.468-2.322a.423.423,0,0,1,.46-.4c1.681-.122,3.36-.262,5.04-.393q4.43-.335,8.861-.66c1.182-.087,2.363-.176,3.545-.249a1.156,1.156,0,0,1,.526.111,2.461,2.461,0,0,1,1.5,2.52,12.711,12.711,0,0,1-.426,2.4c-.557,2.292-1.112,4.583-1.741,6.858A6.055,6.055,0,0,1-199.122,993.174Zm-69.267,4.758c.952-.062,1.842-.118,2.731-.179,2.1-.145,4.2-.3,6.305-.439q3.468-.238,6.938-.463a.431.431,0,0,0,.468-.4c.167-.824.359-1.643.542-2.463l1.42-6.343c.068-.312.119-.63.184-.982l-6.118.454c.048-.267.088-.485.135-.753-.234.014-.428.022-.62.037-.84.066-1.68.135-2.519.2-2.139.163-4.277.327-6.417.475a.394.394,0,0,0-.417.356c-.136.557-.28,1.113-.42,1.669q-.937,3.707-1.873,7.412C-268.164,996.969-268.268,997.423-268.389,997.932Z" transform="translate(305.81 -969.99)" fill="#fff"/><path d="M-114.41,1204.012c.372-.044.7-.095,1.023-.12q2.388-.187,4.777-.359a1.727,1.727,0,0,1,1.723,1.257,8.744,8.744,0,0,0,.315.943.522.522,0,0,1-.112.62q-2.418,3-4.825,6.014a1.635,1.635,0,0,1-.132.1C-112.565,1209.653-113.476,1206.866-114.41,1204.012Z" transform="translate(127.093 -1188.298)" fill="#fff"/><path d="M843.377,1208.029c-.239.846-.451,1.632-.685,2.412-.274.916-.281.921-1.25,1q-3.953.312-7.907.607c-.12.009-.241,0-.415,0,.3-1.086.575-2.1.875-3.118a.447.447,0,0,1,.333-.215c1.731-.146,3.464-.275,5.2-.409l3.592-.277C843.175,1208.026,843.241,1208.029,843.377,1208.029Z" transform="translate(-755.626 -1192.489)" fill="#fff"/><path d="M300.236,1245.058c-.269,1.032-.507,2-.774,2.954-.235.841-.251.811-1.15.872-2.331.157-4.659.34-6.989.51-.456.033-.912.055-1.433.085.137-.563.263-1.089.395-1.614.142-.57.3-1.137.43-1.71a.444.444,0,0,1,.464-.4c2-.148,4-.316,5.995-.479.865-.071,1.729-.15,2.593-.222C299.9,1245.052,300.038,1245.058,300.236,1245.058Z" transform="translate(-249.312 -1227.094)" fill="#fff"/></g></svg>