<svg xmlns="http://www.w3.org/2000/svg" width="33.348" height="35.199" viewBox="0 0 33.348 35.199"><path d="M33.311,19.982c.412,8.281-2.647,13.177-8.069,15.216-5.236-1.913-8.341-6.591-8.1-15.342a11.581,11.581,0,0,0,8.066-2.483c2.323,1.472,5.285,2.864,8.1,2.61ZM18.006,3.472l5.929,5.554H18.006ZM5.6,16.262a.676.676,0,0,1,.49-.221H18.075a.667.667,0,0,1,.5.229.828.828,0,0,1,0,1.074h0a.819.819,0,0,1-.143.12c-.229.043-.458.077-.687.109H6.1a.682.682,0,0,1-.5-.226.822.822,0,0,1,0-1.08Zm0,4.792a.676.676,0,0,1,.5-.232h8.344c.026.524.06,1.037.106,1.538H6.1a.676.676,0,0,1-.5-.226.822.822,0,0,1,0-1.08Zm0,4.789a.682.682,0,0,1,.5-.229h8.923q.163.793.37,1.538H6.1a.667.667,0,0,1-.5-.229.811.811,0,0,1-.2-.541.822.822,0,0,1,.2-.539Zm0-14.374a.676.676,0,0,1,.5-.232h6.875a.665.665,0,0,1,.5.226.811.811,0,0,1,.2.544.822.822,0,0,1-.2.539.682.682,0,0,1-.5.229H6.1a.682.682,0,0,1-.5-.226.819.819,0,0,1-.2-.544.811.811,0,0,1,.2-.547Zm0-4.457a.676.676,0,0,1,.5-.232H9.879a.67.67,0,0,1,.5.223h0a.822.822,0,0,1,0,1.08.676.676,0,0,1-.5.229H6.1a.676.676,0,0,1-.5-.226.822.822,0,0,1,0-1.08Zm21.638,2.81a.985.985,0,0,0-.719-.942L17.78.364A.971.971,0,0,0,17.018,0H1.776A1.776,1.776,0,0,0,0,1.776v30.38a1.756,1.756,0,0,0,.521,1.257,1.782,1.782,0,0,0,1.255.518H18.882a14.844,14.844,0,0,1-1.455-1.982H1.982V1.974H16.018v8.052a1,1,0,0,0,1,.994h8.238v3.386q1.005.636,1.982,1.16Zm-6.4,15.649,1.55-.02A4.651,4.651,0,0,1,23.944,26.6c.255-.407.518-.8.791-1.174q.453-.63.928-1.2c.344-.418.7-.816,1.068-1.2a5.314,5.314,0,0,1,1.306-1.163.077.077,0,0,1,.037,0h1.7a.1.1,0,0,1,.1.1.1.1,0,0,1-.032.072l-.335.364q-.785.859-1.5,1.767c-.478.6-.934,1.22-1.363,1.842s-.834,1.246-1.217,1.885-.75,1.3-1.091,1.959l-.215.412a.1.1,0,0,1-.135.043.126.126,0,0,1-.046-.049l-.195-.418a10.4,10.4,0,0,0-.59-1.106,9.2,9.2,0,0,0-.7-1,8.714,8.714,0,0,0-.831-.891,8.284,8.284,0,0,0-.971-.773.1.1,0,0,1-.037-.115l.123-.412a.1.1,0,0,1,.1-.072Z" transform="translate(0 0)" fill="#fff" fill-rule="evenodd"/></svg>